<svg width="125" height="125" viewBox="0 0 125 125" fill="none" xmlns="http://www.w3.org/2000/svg">
<path fill-rule="evenodd" clip-rule="evenodd" d="M46.875 7.8125H93.75V62.5C93.7502 63.1911 93.5669 63.8699 93.219 64.4671C92.8711 65.0643 92.371 65.5585 91.7697 65.8993C91.1684 66.24 90.4875 66.4152 89.7964 66.4068C89.1053 66.3984 88.4288 66.2068 87.8359 65.8516L70.3125 55.3359L52.7891 65.8594C52.1957 66.215 51.5184 66.4066 50.8267 66.4146C50.1349 66.4227 49.4534 66.2469 48.8519 65.9052C48.2504 65.5635 47.7504 65.0682 47.403 64.4699C47.0557 63.8716 46.8735 63.1918 46.875 62.5V7.8125Z" fill="#FFF5E0"/>
<path d="M23.4375 0H101.562C105.707 0 109.681 1.6462 112.611 4.57646C115.541 7.50671 117.188 11.481 117.188 15.625V109.375C117.188 113.519 115.541 117.493 112.611 120.424C109.681 123.354 105.707 125 101.562 125H23.4375C19.2935 125 15.3192 123.354 12.389 120.424C9.4587 117.493 7.8125 113.519 7.8125 109.375V101.562H15.625V109.375C15.625 111.447 16.4481 113.434 17.9132 114.899C19.3784 116.364 21.3655 117.188 23.4375 117.188H101.562C103.635 117.188 105.622 116.364 107.087 114.899C108.552 113.434 109.375 111.447 109.375 109.375V15.625C109.375 13.553 108.552 11.5659 107.087 10.1007C105.622 8.6356 103.635 7.8125 101.562 7.8125H23.4375C21.3655 7.8125 19.3784 8.6356 17.9132 10.1007C16.4481 11.5659 15.625 13.553 15.625 15.625V23.4375H7.8125V15.625C7.8125 11.481 9.4587 7.50671 12.389 4.57646C15.3192 1.6462 19.2935 0 23.4375 0Z" fill="#FFF5E0"/>
<path d="M7.8125 39.0625V35.1562C7.8125 34.1202 8.22405 33.1267 8.95661 32.3941C9.68918 31.6616 10.6827 31.25 11.7188 31.25C12.7548 31.25 13.7483 31.6616 14.4809 32.3941C15.2135 33.1267 15.625 34.1202 15.625 35.1562V39.0625H19.5312C20.5673 39.0625 21.5608 39.4741 22.2934 40.2066C23.0259 40.9392 23.4375 41.9327 23.4375 42.9688C23.4375 44.0048 23.0259 44.9983 22.2934 45.7309C21.5608 46.4634 20.5673 46.875 19.5312 46.875H3.90625C2.87025 46.875 1.87668 46.4634 1.14411 45.7309C0.41155 44.9983 0 44.0048 0 42.9688C0 41.9327 0.41155 40.9392 1.14411 40.2066C1.87668 39.4741 2.87025 39.0625 3.90625 39.0625H7.8125ZM7.8125 62.5V58.5938C7.8125 57.5577 8.22405 56.5642 8.95661 55.8316C9.68918 55.0991 10.6827 54.6875 11.7188 54.6875C12.7548 54.6875 13.7483 55.0991 14.4809 55.8316C15.2135 56.5642 15.625 57.5577 15.625 58.5938V62.5H19.5312C20.5673 62.5 21.5608 62.9115 22.2934 63.6441C23.0259 64.3767 23.4375 65.3702 23.4375 66.4062C23.4375 67.4423 23.0259 68.4358 22.2934 69.1684C21.5608 69.901 20.5673 70.3125 19.5312 70.3125H3.90625C2.87025 70.3125 1.87668 69.901 1.14411 69.1684C0.41155 68.4358 0 67.4423 0 66.4062C0 65.3702 0.41155 64.3767 1.14411 63.6441C1.87668 62.9115 2.87025 62.5 3.90625 62.5H7.8125ZM7.8125 85.9375V82.0312C7.8125 80.9952 8.22405 80.0017 8.95661 79.2691C9.68918 78.5365 10.6827 78.125 11.7188 78.125C12.7548 78.125 13.7483 78.5365 14.4809 79.2691C15.2135 80.0017 15.625 80.9952 15.625 82.0312V85.9375H19.5312C20.5673 85.9375 21.5608 86.349 22.2934 87.0816C23.0259 87.8142 23.4375 88.8077 23.4375 89.8438C23.4375 90.8798 23.0259 91.8733 22.2934 92.6059C21.5608 93.3385 20.5673 93.75 19.5312 93.75H3.90625C2.87025 93.75 1.87668 93.3385 1.14411 92.6059C0.41155 91.8733 0 90.8798 0 89.8438C0 88.8077 0.41155 87.8142 1.14411 87.0816C1.87668 86.349 2.87025 85.9375 3.90625 85.9375H7.8125Z" fill="#FFF5E0"/>
</svg>
