<svg width="383" height="153" viewBox="0 0 383 153" fill="none" xmlns="http://www.w3.org/2000/svg">
<mask id="path-1-outside-1_2161_1628" maskUnits="userSpaceOnUse" x="5" y="25.75" width="29" height="87" fill="black">
<rect fill="white" x="5" y="25.75" width="29" height="87"/>
<path d="M32.7942 111.75H26.4221C24.3713 111.75 22.1741 111.402 19.8303 110.706C17.5232 110.01 15.3625 108.875 13.3484 107.301C11.3342 105.689 9.66797 103.62 8.34961 101.093C7.03125 98.5298 6.37207 95.3987 6.37207 91.7V27.2651H20.6543V91.7C20.6543 93.4578 21.2036 94.8677 22.3022 95.9297C23.4009 96.9551 24.7742 97.4678 26.4221 97.4678H32.7942V111.75Z"/>
</mask>
<path d="M32.7942 111.75H26.4221C24.3713 111.75 22.1741 111.402 19.8303 110.706C17.5232 110.01 15.3625 108.875 13.3484 107.301C11.3342 105.689 9.66797 103.62 8.34961 101.093C7.03125 98.5298 6.37207 95.3987 6.37207 91.7V27.2651H20.6543V91.7C20.6543 93.4578 21.2036 94.8677 22.3022 95.9297C23.4009 96.9551 24.7742 97.4678 26.4221 97.4678H32.7942V111.75Z" fill="#FFF5E0"/>
<path d="M32.7942 111.75V112.5H33.5442V111.75H32.7942ZM19.8303 110.706L19.6138 111.424L19.6169 111.425L19.8303 110.706ZM13.3484 107.301L12.8798 107.886L12.8864 107.891L13.3484 107.301ZM8.34961 101.093L7.68263 101.436L7.68467 101.44L8.34961 101.093ZM6.37207 27.2651V26.5151H5.62207V27.2651H6.37207ZM20.6543 27.2651H21.4043V26.5151H20.6543V27.2651ZM22.3022 95.9297L21.7809 96.469L21.7905 96.478L22.3022 95.9297ZM32.7942 97.4678H33.5442V96.7178H32.7942V97.4678ZM32.7942 111H26.4221V112.5H32.7942V111ZM26.4221 111C24.4559 111 22.3311 110.666 20.0438 109.987L19.6169 111.425C22.017 112.138 24.2868 112.5 26.4221 112.5V111ZM20.0469 109.988C17.834 109.321 15.7558 108.231 13.8103 106.71L12.8864 107.891C14.9693 109.52 17.2123 110.7 19.6138 111.424L20.0469 109.988ZM13.8169 106.715C11.8923 105.175 10.2898 103.191 9.01455 100.746L7.68467 101.44C9.04613 104.05 10.7762 106.203 12.8799 107.886L13.8169 106.715ZM9.01657 100.75C7.76603 98.3186 7.12207 95.3121 7.12207 91.7H5.62207C5.62207 95.4852 6.29647 98.7409 7.68264 101.436L9.01657 100.75ZM7.12207 91.7V27.2651H5.62207V91.7H7.12207ZM6.37207 28.0151H20.6543V26.5151H6.37207V28.0151ZM19.9043 27.2651V91.7H21.4043V27.2651H19.9043ZM19.9043 91.7C19.9043 93.6278 20.5138 95.244 21.781 96.4689L22.8235 95.3904C21.8934 94.4913 21.4043 93.2878 21.4043 91.7H19.9043ZM21.7905 96.478C23.042 97.646 24.6042 98.2178 26.4221 98.2178V96.7178C24.9442 96.7178 23.7598 96.2642 22.814 95.3814L21.7905 96.478ZM26.4221 98.2178H32.7942V96.7178H26.4221V98.2178ZM32.0442 97.4678V111.75H33.5442V97.4678H32.0442Z" fill="#FFF5E0" mask="url(#path-1-outside-1_2161_1628)"/>
<mask id="path-3-outside-2_2161_1628" maskUnits="userSpaceOnUse" x="41" y="28" width="197" height="110" fill="black">
<rect fill="white" x="41" y="28" width="197" height="110"/>
<path d="M44.1 111V54.3H57.6V111H44.1ZM50.85 45.3C48.375 45.3 46.3125 44.55 44.6625 43.05C43.0875 41.475 42.3 39.5625 42.3 37.3125C42.3 34.9875 43.0875 33.1125 44.6625 31.6875C46.3125 30.1875 48.375 29.4375 50.85 29.4375C53.325 29.4375 55.35 30.1875 56.925 31.6875C58.575 33.1125 59.4 34.9875 59.4 37.3125C59.4 39.5625 58.575 41.475 56.925 43.05C55.35 44.55 53.325 45.3 50.85 45.3ZM206.914 137.1C201.589 137.1 196.901 136.425 192.851 135.075C188.876 133.8 185.764 131.813 183.514 129.113C181.339 126.488 180.251 123.188 180.251 119.213C180.251 116.888 180.814 114.6 181.939 112.35C183.139 110.175 184.901 108.15 187.226 106.275C189.626 104.325 192.664 102.637 196.339 101.212L202.301 107.737C198.701 109.012 196.189 110.55 194.764 112.35C193.339 114.15 192.626 115.988 192.626 117.863C192.626 119.813 193.226 121.425 194.426 122.7C195.701 124.05 197.389 125.063 199.489 125.738C201.664 126.413 204.101 126.75 206.801 126.75C209.426 126.75 211.714 126.375 213.664 125.625C215.614 124.95 217.114 123.975 218.164 122.7C219.289 121.425 219.851 119.888 219.851 118.088C219.851 115.838 219.064 114 217.489 112.575C215.914 111.225 212.801 110.4 208.151 110.1C204.176 109.8 200.689 109.387 197.689 108.862C194.689 108.262 192.101 107.587 189.926 106.837C187.826 106.087 186.026 105.262 184.526 104.362C183.026 103.387 181.789 102.412 180.814 101.437V98.85L192.626 86.475L202.639 89.7375L189.364 102.675L192.851 96.15C193.601 96.675 194.351 97.1625 195.101 97.6125C195.926 98.0625 196.939 98.475 198.139 98.85C199.414 99.15 201.064 99.45 203.089 99.75C205.114 100.05 207.739 100.35 210.964 100.65C215.989 101.025 220.076 101.925 223.226 103.35C226.376 104.775 228.701 106.687 230.201 109.087C231.701 111.488 232.451 114.375 232.451 117.75C232.451 121.05 231.514 124.163 229.639 127.088C227.839 130.013 225.064 132.413 221.314 134.288C217.564 136.163 212.764 137.1 206.914 137.1ZM206.914 94.0125C202.189 94.0125 198.101 93.1125 194.651 91.3125C191.276 89.4375 188.689 86.9625 186.889 83.8875C185.089 80.7375 184.189 77.2875 184.189 73.5375C184.189 69.7125 185.089 66.2625 186.889 63.1875C188.689 60.1125 191.276 57.6375 194.651 55.7625C198.101 53.8875 202.189 52.95 206.914 52.95C211.639 52.95 215.689 53.8875 219.064 55.7625C222.439 57.6375 225.026 60.1125 226.826 63.1875C228.626 66.2625 229.526 69.7125 229.526 73.5375C229.526 77.2875 228.626 80.7375 226.826 83.8875C225.026 86.9625 222.439 89.4375 219.064 91.3125C215.689 93.1125 211.639 94.0125 206.914 94.0125ZM206.914 83.55C210.139 83.55 212.726 82.6875 214.676 80.9625C216.626 79.2375 217.601 76.7625 217.601 73.5375C217.601 70.3125 216.626 67.875 214.676 66.225C212.726 64.5 210.139 63.6375 206.914 63.6375C203.689 63.6375 201.064 64.5 199.039 66.225C197.014 67.875 196.001 70.3125 196.001 73.5375C196.001 76.7625 197.014 79.2375 199.039 80.9625C201.064 82.6875 203.689 83.55 206.914 83.55ZM216.251 64.2L213.664 54.3H236.951V62.7375L216.251 64.2Z"/>
</mask>
<path d="M44.1 111V54.3H57.6V111H44.1ZM50.85 45.3C48.375 45.3 46.3125 44.55 44.6625 43.05C43.0875 41.475 42.3 39.5625 42.3 37.3125C42.3 34.9875 43.0875 33.1125 44.6625 31.6875C46.3125 30.1875 48.375 29.4375 50.85 29.4375C53.325 29.4375 55.35 30.1875 56.925 31.6875C58.575 33.1125 59.4 34.9875 59.4 37.3125C59.4 39.5625 58.575 41.475 56.925 43.05C55.35 44.55 53.325 45.3 50.85 45.3ZM206.914 137.1C201.589 137.1 196.901 136.425 192.851 135.075C188.876 133.8 185.764 131.813 183.514 129.113C181.339 126.488 180.251 123.188 180.251 119.213C180.251 116.888 180.814 114.6 181.939 112.35C183.139 110.175 184.901 108.15 187.226 106.275C189.626 104.325 192.664 102.637 196.339 101.212L202.301 107.737C198.701 109.012 196.189 110.55 194.764 112.35C193.339 114.15 192.626 115.988 192.626 117.863C192.626 119.813 193.226 121.425 194.426 122.7C195.701 124.05 197.389 125.063 199.489 125.738C201.664 126.413 204.101 126.75 206.801 126.75C209.426 126.75 211.714 126.375 213.664 125.625C215.614 124.95 217.114 123.975 218.164 122.7C219.289 121.425 219.851 119.888 219.851 118.088C219.851 115.838 219.064 114 217.489 112.575C215.914 111.225 212.801 110.4 208.151 110.1C204.176 109.8 200.689 109.387 197.689 108.862C194.689 108.262 192.101 107.587 189.926 106.837C187.826 106.087 186.026 105.262 184.526 104.362C183.026 103.387 181.789 102.412 180.814 101.437V98.85L192.626 86.475L202.639 89.7375L189.364 102.675L192.851 96.15C193.601 96.675 194.351 97.1625 195.101 97.6125C195.926 98.0625 196.939 98.475 198.139 98.85C199.414 99.15 201.064 99.45 203.089 99.75C205.114 100.05 207.739 100.35 210.964 100.65C215.989 101.025 220.076 101.925 223.226 103.35C226.376 104.775 228.701 106.687 230.201 109.087C231.701 111.488 232.451 114.375 232.451 117.75C232.451 121.05 231.514 124.163 229.639 127.088C227.839 130.013 225.064 132.413 221.314 134.288C217.564 136.163 212.764 137.1 206.914 137.1ZM206.914 94.0125C202.189 94.0125 198.101 93.1125 194.651 91.3125C191.276 89.4375 188.689 86.9625 186.889 83.8875C185.089 80.7375 184.189 77.2875 184.189 73.5375C184.189 69.7125 185.089 66.2625 186.889 63.1875C188.689 60.1125 191.276 57.6375 194.651 55.7625C198.101 53.8875 202.189 52.95 206.914 52.95C211.639 52.95 215.689 53.8875 219.064 55.7625C222.439 57.6375 225.026 60.1125 226.826 63.1875C228.626 66.2625 229.526 69.7125 229.526 73.5375C229.526 77.2875 228.626 80.7375 226.826 83.8875C225.026 86.9625 222.439 89.4375 219.064 91.3125C215.689 93.1125 211.639 94.0125 206.914 94.0125ZM206.914 83.55C210.139 83.55 212.726 82.6875 214.676 80.9625C216.626 79.2375 217.601 76.7625 217.601 73.5375C217.601 70.3125 216.626 67.875 214.676 66.225C212.726 64.5 210.139 63.6375 206.914 63.6375C203.689 63.6375 201.064 64.5 199.039 66.225C197.014 67.875 196.001 70.3125 196.001 73.5375C196.001 76.7625 197.014 79.2375 199.039 80.9625C201.064 82.6875 203.689 83.55 206.914 83.55ZM216.251 64.2L213.664 54.3H236.951V62.7375L216.251 64.2Z" fill="#FFF5E0"/>
<path d="M44.1 111H43.35V111.75H44.1V111ZM44.1 54.3V53.55H43.35V54.3H44.1ZM57.6 54.3H58.35V53.55H57.6V54.3ZM57.6 111V111.75H58.35V111H57.6ZM44.6625 43.05L44.1322 43.5803L44.1448 43.5929L44.158 43.6049L44.6625 43.05ZM44.6625 31.6875L45.1657 32.2436L45.167 32.2425L44.6625 31.6875ZM56.925 31.6875L56.4078 32.2306L56.421 32.2432L56.4348 32.2551L56.925 31.6875ZM56.925 43.05L57.4422 43.5931L57.4429 43.5925L56.925 43.05ZM44.85 111V54.3H43.35V111H44.85ZM44.1 55.05H57.6V53.55H44.1V55.05ZM56.85 54.3V111H58.35V54.3H56.85ZM57.6 110.25H44.1V111.75H57.6V110.25ZM50.85 44.55C48.5394 44.55 46.6634 43.8554 45.167 42.495L44.158 43.6049C45.9616 45.2446 48.2106 46.05 50.85 46.05V44.55ZM45.1928 42.5197C43.7601 41.0869 43.05 39.3659 43.05 37.3125H41.55C41.55 39.7591 42.4149 41.8631 44.1322 43.5803L45.1928 42.5197ZM43.05 37.3125C43.05 35.177 43.7637 33.5121 45.1657 32.2436L44.1593 31.1313C42.4113 32.7129 41.55 34.798 41.55 37.3125H43.05ZM45.167 32.2425C46.6634 30.8821 48.5394 30.1875 50.85 30.1875V28.6875C48.2106 28.6875 45.9616 29.4929 44.158 31.1325L45.167 32.2425ZM50.85 30.1875C53.1611 30.1875 54.9917 30.882 56.4078 32.2306L57.4422 31.1444C55.7083 29.493 53.4889 28.6875 50.85 28.6875V30.1875ZM56.4348 32.2551C57.9078 33.5272 58.65 35.189 58.65 37.3125H60.15C60.15 34.786 59.2422 32.6978 57.4152 31.1199L56.4348 32.2551ZM58.65 37.3125C58.65 39.3544 57.9112 41.0718 56.4071 42.5075L57.4429 43.5925C59.2388 41.8782 60.15 39.7706 60.15 37.3125H58.65ZM56.4078 42.5069C54.9917 43.8555 53.1611 44.55 50.85 44.55V46.05C53.4889 46.05 55.7083 45.2445 57.4422 43.5931L56.4078 42.5069ZM192.851 135.075L193.089 134.363L193.08 134.361L192.851 135.075ZM183.514 129.113L182.936 129.591L182.938 129.593L183.514 129.113ZM181.939 112.35L181.282 111.988L181.275 112.001L181.268 112.015L181.939 112.35ZM187.226 106.275L187.697 106.859L187.699 106.857L187.226 106.275ZM196.339 101.213L196.893 100.707L196.546 100.328L196.068 100.513L196.339 101.213ZM202.301 107.738L202.552 108.444L203.618 108.067L202.855 107.232L202.301 107.738ZM194.764 112.35L194.176 111.884L194.764 112.35ZM194.426 122.7L193.88 123.214L193.881 123.215L194.426 122.7ZM199.489 125.738L199.259 126.452L199.267 126.454L199.489 125.738ZM213.664 125.625L213.419 124.916L213.407 124.92L213.395 124.925L213.664 125.625ZM218.164 122.7L217.601 122.204L217.593 122.213L217.585 122.223L218.164 122.7ZM217.489 112.575L217.992 112.019L217.985 112.012L217.977 112.006L217.489 112.575ZM208.151 110.1L208.095 110.848L208.103 110.848L208.151 110.1ZM197.689 108.863L197.542 109.598L197.551 109.6L197.56 109.601L197.689 108.863ZM189.926 106.838L189.674 107.544L189.682 107.547L189.926 106.838ZM184.526 104.363L184.118 104.991L184.129 104.999L184.141 105.006L184.526 104.363ZM180.814 101.438H180.064V101.748L180.284 101.968L180.814 101.438ZM180.814 98.85L180.271 98.3321L180.064 98.5495V98.85H180.814ZM192.626 86.475L192.859 85.7619L192.41 85.6156L192.084 85.9571L192.626 86.475ZM202.639 89.7375L203.162 90.2746L204.051 89.4087L202.871 89.0244L202.639 89.7375ZM189.364 102.675L188.702 102.321L189.887 103.212L189.364 102.675ZM192.851 96.15L193.281 95.5356L192.589 95.0506L192.19 95.7965L192.851 96.15ZM195.101 97.6125L194.715 98.2556L194.729 98.2635L194.742 98.2709L195.101 97.6125ZM198.139 98.85L197.915 99.5659L197.941 99.5739L197.967 99.5801L198.139 98.85ZM203.089 99.75L202.979 100.492L203.089 99.75ZM210.964 100.65L210.894 101.397L210.908 101.398L210.964 100.65ZM229.639 127.088L229.007 126.683L229 126.694L229.639 127.088ZM194.651 91.3125L194.287 91.9681L194.296 91.9729L194.304 91.9774L194.651 91.3125ZM186.889 83.8875L186.238 84.2596L186.242 84.2664L186.889 83.8875ZM194.651 55.7625L194.293 55.1035L194.287 55.1069L194.651 55.7625ZM219.064 55.7625L219.428 55.1069L219.064 55.7625ZM226.826 63.1875L227.474 62.8086L226.826 63.1875ZM226.826 83.8875L227.474 84.2664L227.478 84.2596L226.826 83.8875ZM219.064 91.3125L219.417 91.9744L219.428 91.9681L219.064 91.3125ZM214.676 66.225L214.179 66.7867L214.186 66.7922L214.192 66.7975L214.676 66.225ZM199.039 66.225L199.513 66.8064L199.519 66.8012L199.525 66.7959L199.039 66.225ZM199.039 80.9625L198.553 81.5334L199.039 80.9625ZM216.251 64.2L215.526 64.3896L215.683 64.992L216.304 64.9481L216.251 64.2ZM213.664 54.3V53.55H212.693L212.938 54.4897L213.664 54.3ZM236.951 54.3H237.701V53.55H236.951V54.3ZM236.951 62.7375L237.004 63.4856L237.701 63.4364V62.7375H236.951ZM206.914 136.35C201.65 136.35 197.046 135.683 193.089 134.363L192.614 135.787C196.757 137.167 201.527 137.85 206.914 137.85V136.35ZM193.08 134.361C189.215 133.121 186.233 131.204 184.09 128.632L182.938 129.593C185.295 132.421 188.538 134.479 192.622 135.789L193.08 134.361ZM184.091 128.634C182.046 126.165 181.001 123.043 181.001 119.213H179.501C179.501 123.332 180.632 126.81 182.936 129.591L184.091 128.634ZM181.001 119.213C181.001 117.013 181.532 114.84 182.61 112.685L181.268 112.015C180.095 114.36 179.501 116.762 179.501 119.213H181.001ZM182.596 112.712C183.74 110.638 185.433 108.685 187.697 106.859L186.756 105.691C184.37 107.615 182.538 109.712 181.282 111.988L182.596 112.712ZM187.699 106.857C190.025 104.968 192.989 103.316 196.61 101.912L196.068 100.513C192.339 101.959 189.228 103.682 186.753 105.693L187.699 106.857ZM195.785 101.718L201.748 108.243L202.855 107.232L196.893 100.707L195.785 101.718ZM202.051 107.031C198.397 108.325 195.729 109.923 194.176 111.884L195.352 112.816C196.649 111.177 199.006 109.7 202.552 108.444L202.051 107.031ZM194.176 111.884C192.67 113.786 191.876 115.783 191.876 117.863H193.376C193.376 116.192 194.008 114.514 195.352 112.816L194.176 111.884ZM191.876 117.863C191.876 119.98 192.534 121.784 193.88 123.214L194.973 122.186C193.919 121.066 193.376 119.645 193.376 117.863H191.876ZM193.881 123.215C195.258 124.673 197.062 125.745 199.259 126.452L199.718 125.023C197.716 124.38 196.145 123.427 194.972 122.185L193.881 123.215ZM199.267 126.454C201.525 127.155 204.04 127.5 206.801 127.5V126C204.163 126 201.802 125.67 199.711 125.021L199.267 126.454ZM206.801 127.5C209.496 127.5 211.878 127.115 213.933 126.325L213.395 124.925C211.549 125.635 209.357 126 206.801 126V127.5ZM213.909 126.334C215.957 125.625 217.586 124.582 218.743 123.177L217.585 122.223C216.642 123.368 215.27 124.275 213.419 124.916L213.909 126.334ZM218.726 123.196C219.98 121.776 220.601 120.059 220.601 118.088H219.101C219.101 119.716 218.598 121.074 217.601 122.204L218.726 123.196ZM220.601 118.088C220.601 115.64 219.734 113.595 217.992 112.019L216.986 113.131C218.393 114.405 219.101 116.035 219.101 118.088H220.601ZM217.977 112.006C217.069 111.228 215.776 110.646 214.165 110.219C212.546 109.79 210.554 109.503 208.2 109.352L208.103 110.848C210.399 110.997 212.288 111.273 213.781 111.669C215.283 112.067 216.333 112.572 217.001 113.144L217.977 112.006ZM208.208 109.352C204.25 109.053 200.788 108.643 197.818 108.124L197.56 109.601C200.59 110.132 204.102 110.547 208.095 110.848L208.208 109.352ZM197.836 108.127C194.859 107.532 192.306 106.865 190.171 106.128L189.682 107.547C191.897 108.31 194.519 108.993 197.542 109.598L197.836 108.127ZM190.179 106.131C188.113 105.394 186.36 104.588 184.912 103.719L184.141 105.006C185.693 105.937 187.54 106.781 189.674 107.544L190.179 106.131ZM184.935 103.734C183.467 102.779 182.273 101.836 181.344 100.907L180.284 101.968C181.305 102.989 182.586 103.996 184.118 104.991L184.935 103.734ZM181.564 101.438V98.85H180.064V101.438H181.564ZM181.356 99.3679L193.169 86.9929L192.084 85.9571L180.271 98.3321L181.356 99.3679ZM192.394 87.1881L202.407 90.4506L202.871 89.0244L192.859 85.7619L192.394 87.1881ZM202.115 89.2004L188.84 102.138L189.887 103.212L203.162 90.2746L202.115 89.2004ZM190.025 103.029L193.513 96.5035L192.19 95.7965L188.702 102.321L190.025 103.029ZM192.421 96.7644C193.185 97.299 193.95 97.7962 194.715 98.2556L195.487 96.9694C194.753 96.5288 194.018 96.051 193.281 95.5356L192.421 96.7644ZM194.742 98.2709C195.622 98.7508 196.683 99.1808 197.915 99.5659L198.363 98.1341C197.195 97.7692 196.231 97.3742 195.461 96.9541L194.742 98.2709ZM197.967 99.5801C199.271 99.8868 200.943 100.19 202.979 100.492L203.199 99.0081C201.184 98.7097 199.557 98.4132 198.311 98.1199L197.967 99.5801ZM202.979 100.492C205.023 100.795 207.663 101.096 210.894 101.397L211.033 99.9032C207.815 99.6039 205.205 99.3053 203.199 99.0081L202.979 100.492ZM210.908 101.398C215.882 101.769 219.875 102.657 222.917 104.033L223.535 102.667C220.278 101.193 216.096 100.281 211.02 99.9021L210.908 101.398ZM222.917 104.033C225.963 105.411 228.16 107.236 229.565 109.485L230.837 108.69C229.243 106.139 226.79 104.139 223.535 102.667L222.917 104.033ZM229.565 109.485C230.978 111.745 231.701 114.488 231.701 117.75H233.201C233.201 114.262 232.425 111.23 230.837 108.69L229.565 109.485ZM231.701 117.75C231.701 120.899 230.809 123.872 229.007 126.683L230.27 127.492C232.218 124.453 233.201 121.201 233.201 117.75H231.701ZM229 126.694C227.288 129.477 224.631 131.79 220.978 133.617L221.649 134.958C225.497 133.035 228.39 130.548 230.278 127.481L229 126.694ZM220.978 133.617C217.365 135.423 212.691 136.35 206.914 136.35V137.85C212.837 137.85 217.762 136.902 221.649 134.958L220.978 133.617ZM206.914 93.2625C202.284 93.2625 198.321 92.3809 194.998 90.6476L194.304 91.9774C197.882 93.8441 202.094 94.7625 206.914 94.7625V93.2625ZM195.016 90.6569C191.748 88.8415 189.263 86.4581 187.536 83.5086L186.242 84.2664C188.115 87.4669 190.805 90.0335 194.287 91.9681L195.016 90.6569ZM187.54 83.5154C185.807 80.4826 184.939 77.1616 184.939 73.5375H183.439C183.439 77.4134 184.371 80.9924 186.238 84.2596L187.54 83.5154ZM184.939 73.5375C184.939 69.8355 185.808 66.518 187.536 63.5664L186.242 62.8086C184.369 66.007 183.439 69.5895 183.439 73.5375H184.939ZM187.536 63.5664C189.263 60.6169 191.748 58.2335 195.016 56.4181L194.287 55.1069C190.805 57.0415 188.115 59.6081 186.242 62.8086L187.536 63.5664ZM195.01 56.4215C198.329 54.6172 202.289 53.7 206.914 53.7V52.2C202.089 52.2 197.873 53.1578 194.293 55.1035L195.01 56.4215ZM206.914 53.7C211.54 53.7 215.458 54.6174 218.7 56.4181L219.428 55.1069C215.919 53.1576 211.738 52.2 206.914 52.2V53.7ZM218.7 56.4181C221.967 58.2335 224.453 60.6169 226.179 63.5664L227.474 62.8086C225.6 59.6081 222.91 57.0415 219.428 55.1069L218.7 56.4181ZM226.179 63.5664C227.907 66.518 228.776 69.8355 228.776 73.5375H230.276C230.276 69.5895 229.346 66.007 227.474 62.8086L226.179 63.5664ZM228.776 73.5375C228.776 77.1616 227.908 80.4826 226.175 83.5154L227.478 84.2596C229.345 80.9924 230.276 77.4134 230.276 73.5375H228.776ZM226.179 83.5086C224.453 86.4581 221.967 88.8415 218.7 90.6569L219.428 91.9681C222.91 90.0335 225.6 87.4669 227.474 84.2664L226.179 83.5086ZM218.711 90.6507C215.467 92.3807 211.544 93.2625 206.914 93.2625V94.7625C211.733 94.7625 215.911 93.8443 219.417 91.9743L218.711 90.6507ZM206.914 84.3C210.276 84.3 213.056 83.3976 215.173 81.5242L214.179 80.4007C212.397 81.9774 210.001 82.8 206.914 82.8V84.3ZM215.173 81.5242C217.322 79.6239 218.351 76.9219 218.351 73.5375H216.851C216.851 76.6031 215.931 78.8511 214.179 80.4007L215.173 81.5242ZM218.351 73.5375C218.351 70.1546 217.322 67.481 215.161 65.6525L214.192 66.7975C215.931 68.269 216.851 70.4704 216.851 73.5375H218.351ZM215.173 65.6632C213.056 63.7899 210.276 62.8875 206.914 62.8875V64.3875C210.001 64.3875 212.397 65.2101 214.179 66.7867L215.173 65.6632ZM206.914 62.8875C203.55 62.8875 200.74 63.7902 198.553 65.6541L199.525 66.7959C201.387 65.2097 203.828 64.3875 206.914 64.3875V62.8875ZM198.565 65.6436C196.325 67.469 195.251 70.1451 195.251 73.5375H196.751C196.751 70.4799 197.703 68.281 199.513 66.8064L198.565 65.6436ZM195.251 73.5375C195.251 76.9311 196.325 79.6358 198.553 81.5334L199.525 80.3916C197.703 78.8392 196.751 76.5939 196.751 73.5375H195.251ZM198.553 81.5334C200.74 83.3972 203.55 84.3 206.914 84.3V82.8C203.828 82.8 201.387 81.9777 199.525 80.3916L198.553 81.5334ZM216.977 64.0103L214.389 54.1103L212.938 54.4897L215.526 64.3896L216.977 64.0103ZM213.664 55.05H236.951V53.55H213.664V55.05ZM236.201 54.3V62.7375H237.701V54.3H236.201ZM236.899 61.9894L216.199 63.4519L216.304 64.9481L237.004 63.4856L236.899 61.9894Z" fill="#FFF5E0" mask="url(#path-3-outside-2_2161_1628)"/>
<mask id="path-5-outside-3_2161_1628" maskUnits="userSpaceOnUse" x="124.25" y="57.5" width="51" height="57" fill="black">
<rect fill="white" x="124.25" y="57.5" width="51" height="57"/>
<path d="M149.902 112.873C144.555 112.873 140.124 111.976 136.608 110.182C133.093 108.351 130.438 105.897 128.643 102.821C127.691 101.173 126.977 99.3601 126.501 97.3826C126.062 95.405 125.842 93.2078 125.842 90.7908V58.2712H138.861V89.4175C138.861 91.2119 138.989 92.7683 139.245 94.0867C139.501 95.3684 139.886 96.4854 140.399 97.4375C141.278 99.0488 142.523 100.257 144.134 101.063C145.745 101.832 147.668 102.217 149.902 102.217C152.246 102.217 154.241 101.777 155.889 100.898C157.574 100.019 158.837 98.6826 159.68 96.8882C160.522 95.167 160.943 92.7683 160.943 89.6921V58.2712H173.962V90.7908C173.962 95.1121 173.211 98.7559 171.71 101.722C170.867 103.407 169.769 104.945 168.414 106.336C167.095 107.691 165.521 108.863 163.69 109.852C161.895 110.804 159.844 111.537 157.537 112.049C155.267 112.599 152.722 112.873 149.902 112.873Z"/>
</mask>
<path d="M149.902 112.873C144.555 112.873 140.124 111.976 136.608 110.182C133.093 108.351 130.438 105.897 128.643 102.821C127.691 101.173 126.977 99.3601 126.501 97.3826C126.062 95.405 125.842 93.2078 125.842 90.7908V58.2712H138.861V89.4175C138.861 91.2119 138.989 92.7683 139.245 94.0867C139.501 95.3684 139.886 96.4854 140.399 97.4375C141.278 99.0488 142.523 100.257 144.134 101.063C145.745 101.832 147.668 102.217 149.902 102.217C152.246 102.217 154.241 101.777 155.889 100.898C157.574 100.019 158.837 98.6826 159.68 96.8882C160.522 95.167 160.943 92.7683 160.943 89.6921V58.2712H173.962V90.7908C173.962 95.1121 173.211 98.7559 171.71 101.722C170.867 103.407 169.769 104.945 168.414 106.336C167.095 107.691 165.521 108.863 163.69 109.852C161.895 110.804 159.844 111.537 157.537 112.049C155.267 112.599 152.722 112.873 149.902 112.873Z" fill="#FFF5E0"/>
<path d="M136.608 110.182L136.262 110.847L136.267 110.85L136.608 110.182ZM128.643 102.821L127.994 103.196L127.995 103.199L128.643 102.821ZM126.501 97.3826L125.769 97.5453L125.772 97.5581L126.501 97.3826ZM125.842 58.2712V57.5212H125.092V58.2712H125.842ZM138.861 58.2712H139.611V57.5212H138.861V58.2712ZM139.245 94.0867L138.509 94.2298L138.51 94.2338L139.245 94.0867ZM140.399 97.4375L139.738 97.7931L139.74 97.7966L140.399 97.4375ZM144.134 101.063L143.799 101.734L143.811 101.74L144.134 101.063ZM155.889 100.898L155.542 100.233L155.536 100.236L155.889 100.898ZM159.68 96.8882L159.006 96.5585L159.001 96.5695L159.68 96.8882ZM160.943 58.2712V57.5212H160.193V58.2712H160.943ZM173.962 58.2712H174.712V57.5212H173.962V58.2712ZM171.71 101.722L171.041 101.383L171.039 101.387L171.71 101.722ZM168.414 106.336L167.876 105.813L167.876 105.813L168.414 106.336ZM163.69 109.852L164.041 110.515L164.046 110.512L163.69 109.852ZM157.537 112.049L157.375 111.317L157.361 111.32L157.537 112.049ZM149.902 112.123C144.634 112.123 140.329 111.239 136.949 109.514L136.267 110.85C139.919 112.714 144.477 113.623 149.902 113.623V112.123ZM136.955 109.516C133.55 107.743 131.006 105.383 129.291 102.443L127.995 103.199C129.869 106.411 132.635 108.958 136.262 110.847L136.955 109.516ZM129.293 102.446C128.379 100.864 127.691 99.1193 127.23 97.207L125.772 97.5581C126.264 99.6009 127.003 101.482 127.994 103.196L129.293 102.446ZM127.233 97.2199C126.808 95.3048 126.592 93.1632 126.592 90.7908H125.092C125.092 93.2523 125.315 95.5052 125.769 97.5453L127.233 97.2199ZM126.592 90.7908V58.2712H125.092V90.7908H126.592ZM125.842 59.0212H138.861V57.5212H125.842V59.0212ZM138.111 58.2712V89.4175H139.611V58.2712H138.111ZM138.111 89.4175C138.111 91.245 138.241 92.8516 138.509 94.2298L139.981 93.9435C139.737 92.685 139.611 91.1788 139.611 89.4175H138.111ZM138.51 94.2338C138.778 95.5737 139.184 96.7636 139.738 97.7931L141.059 97.0819C140.588 96.2071 140.225 95.1631 139.981 93.9396L138.51 94.2338ZM139.74 97.7966C140.691 99.5397 142.048 100.858 143.799 101.734L144.469 100.392C142.998 99.6563 141.864 98.558 141.057 97.0784L139.74 97.7966ZM143.811 101.74C145.545 102.568 147.584 102.967 149.902 102.967V101.467C147.752 101.467 145.945 101.096 144.457 100.386L143.811 101.74ZM149.902 102.967C152.338 102.967 154.462 102.51 156.242 101.56L155.536 100.236C154.021 101.044 152.153 101.467 149.902 101.467V102.967ZM156.236 101.563C158.073 100.605 159.45 99.1431 160.359 97.2069L159.001 96.5695C158.225 98.2222 157.075 99.4338 155.542 100.233L156.236 101.563ZM160.353 97.2178C161.267 95.3502 161.693 92.821 161.693 89.6921H160.193C160.193 92.7156 159.777 94.9837 159.006 96.5585L160.353 97.2178ZM161.693 89.6921V58.2712H160.193V89.6921H161.693ZM160.943 59.0212H173.962V57.5212H160.943V59.0212ZM173.212 58.2712V90.7908H174.712V58.2712H173.212ZM173.212 90.7908C173.212 95.0284 172.475 98.5488 171.041 101.383L172.379 102.061C173.947 98.9629 174.712 95.1957 174.712 90.7908H173.212ZM171.039 101.387C170.232 103 169.179 104.475 167.876 105.813L168.951 106.86C170.358 105.414 171.503 103.813 172.381 102.058L171.039 101.387ZM167.876 105.813C166.616 107.109 165.104 108.236 163.333 109.192L164.046 110.512C165.937 109.491 167.575 108.274 168.951 106.859L167.876 105.813ZM163.338 109.19C161.612 110.105 159.626 110.817 157.375 111.317L157.7 112.781C160.063 112.256 162.178 111.503 164.041 110.515L163.338 109.19ZM157.361 111.32C155.159 111.853 152.674 112.123 149.902 112.123V113.623C152.769 113.623 155.375 113.344 157.714 112.778L157.361 111.32Z" fill="#FFF5E0" mask="url(#path-5-outside-3_2161_1628)"/>
<mask id="path-7-outside-4_2161_1628" maskUnits="userSpaceOnUse" x="68.5" y="55" width="51" height="57" fill="black">
<rect fill="white" x="68.5" y="55" width="51" height="57"/>
<path d="M93.8481 56.6267C99.1948 56.6267 103.626 57.5239 107.142 59.3184C110.657 61.1494 113.312 63.603 115.107 66.6792C116.059 68.3271 116.773 70.1399 117.249 72.1174C117.688 74.095 117.908 76.2922 117.908 78.7092V111.229H104.889V80.0825C104.889 78.2881 104.761 76.7317 104.505 75.4133C104.249 74.1316 103.864 73.0146 103.351 72.0625C102.472 70.4512 101.227 69.2427 99.616 68.437C98.0046 67.668 96.082 67.2834 93.8481 67.2834C91.5044 67.2834 89.5085 67.7229 87.8606 68.6018C86.176 69.4807 84.9126 70.8174 84.0703 72.6118C83.228 74.333 82.8069 76.7317 82.8069 79.8079V111.229H69.7881V78.7092C69.7881 74.3879 70.5388 70.7441 72.0403 67.7778C72.8826 66.0933 73.9812 64.5552 75.3362 63.1636C76.6545 61.8086 78.2292 60.6367 80.0603 59.6479C81.8547 58.6958 83.9055 57.9634 86.2126 57.4507C88.4832 56.9014 91.0283 56.6267 93.8481 56.6267Z"/>
</mask>
<path d="M93.8481 56.6267C99.1948 56.6267 103.626 57.5239 107.142 59.3184C110.657 61.1494 113.312 63.603 115.107 66.6792C116.059 68.3271 116.773 70.1399 117.249 72.1174C117.688 74.095 117.908 76.2922 117.908 78.7092V111.229H104.889V80.0825C104.889 78.2881 104.761 76.7317 104.505 75.4133C104.249 74.1316 103.864 73.0146 103.351 72.0625C102.472 70.4512 101.227 69.2427 99.616 68.437C98.0046 67.668 96.082 67.2834 93.8481 67.2834C91.5044 67.2834 89.5085 67.7229 87.8606 68.6018C86.176 69.4807 84.9126 70.8174 84.0703 72.6118C83.228 74.333 82.8069 76.7317 82.8069 79.8079V111.229H69.7881V78.7092C69.7881 74.3879 70.5388 70.7441 72.0403 67.7778C72.8826 66.0933 73.9812 64.5552 75.3362 63.1636C76.6545 61.8086 78.2292 60.6367 80.0603 59.6479C81.8547 58.6958 83.9055 57.9634 86.2126 57.4507C88.4832 56.9014 91.0283 56.6267 93.8481 56.6267Z" fill="#FFF5E0"/>
<path d="M107.142 59.3184L107.488 58.6532L107.483 58.6503L107.142 59.3184ZM115.107 66.6792L115.756 66.304L115.755 66.3013L115.107 66.6792ZM117.249 72.1174L117.981 71.9547L117.978 71.9419L117.249 72.1174ZM117.908 111.229V111.979H118.658V111.229H117.908ZM104.889 111.229H104.139V111.979H104.889V111.229ZM104.505 75.4133L105.241 75.2702L105.24 75.2662L104.505 75.4133ZM103.351 72.0625L104.012 71.7069L104.01 71.7034L103.351 72.0625ZM99.616 68.437L99.9514 67.7661L99.939 67.7602L99.616 68.437ZM87.8606 68.6018L88.2075 69.2668L88.2135 69.2636L87.8606 68.6018ZM84.0703 72.6118L84.7441 72.9415L84.7492 72.9305L84.0703 72.6118ZM82.8069 111.229V111.979H83.5569V111.229H82.8069ZM69.7881 111.229H69.0381V111.979H69.7881V111.229ZM72.0403 67.7778L72.7094 68.1165L72.7111 68.1132L72.0403 67.7778ZM75.3362 63.1636L75.8735 63.6868L75.8737 63.6866L75.3362 63.1636ZM80.0603 59.6479L79.7088 58.9854L79.7039 58.988L80.0603 59.6479ZM86.2126 57.4507L86.3754 58.183L86.389 58.1796L86.2126 57.4507ZM93.8481 57.3767C99.1163 57.3767 103.421 58.2615 106.801 59.9864L107.483 58.6503C103.831 56.7864 99.2733 55.8767 93.8481 55.8767V57.3767ZM106.795 59.9835C110.2 61.7568 112.744 64.1167 114.459 67.0571L115.755 66.3013C113.881 63.0893 111.115 60.542 107.488 58.6532L106.795 59.9835ZM114.457 67.0544C115.371 68.6358 116.059 70.3807 116.52 72.293L117.978 71.9419C117.486 69.8991 116.747 68.0185 115.756 66.304L114.457 67.0544ZM116.517 72.2801C116.942 74.1952 117.158 76.3368 117.158 78.7092H118.658C118.658 76.2477 118.435 73.9948 117.981 71.9547L116.517 72.2801ZM117.158 78.7092V111.229H118.658V78.7092H117.158ZM117.908 110.479H104.889V111.979H117.908V110.479ZM105.639 111.229V80.0825H104.139V111.229H105.639ZM105.639 80.0825C105.639 78.255 105.509 76.6484 105.241 75.2702L103.769 75.5565C104.013 76.815 104.139 78.3212 104.139 80.0825H105.639ZM105.24 75.2662C104.972 73.9263 104.566 72.7364 104.012 71.7069L102.691 72.4181C103.162 73.2929 103.525 74.3369 103.769 75.5604L105.24 75.2662ZM104.01 71.7034C103.059 69.9603 101.702 68.6417 99.9514 67.7662L99.2806 69.1078C100.752 69.8437 101.886 70.942 102.693 72.4216L104.01 71.7034ZM99.939 67.7602C98.2047 66.9324 96.1665 66.5334 93.8481 66.5334V68.0334C95.9976 68.0334 97.8045 68.4035 99.2929 69.1139L99.939 67.7602ZM93.8481 66.5334C91.4121 66.5334 89.2885 66.9903 87.5077 67.94L88.2135 69.2636C89.7286 68.4555 91.5967 68.0334 93.8481 68.0334V66.5334ZM87.5137 67.9369C85.6769 68.8952 84.3002 70.3569 83.3914 72.2931L84.7492 72.9305C85.525 71.2778 86.6752 70.0662 88.2075 69.2667L87.5137 67.9369ZM83.3966 72.2822C82.4827 74.1498 82.0569 76.679 82.0569 79.8079H83.5569C83.5569 76.7844 83.9733 74.5163 84.744 72.9415L83.3966 72.2822ZM82.0569 79.8079V111.229H83.5569V79.8079H82.0569ZM82.8069 110.479H69.7881V111.979H82.8069V110.479ZM70.5381 111.229V78.7092H69.0381V111.229H70.5381ZM70.5381 78.7092C70.5381 74.4716 71.2746 70.9512 72.7094 68.1165L71.3711 67.4391C69.803 70.5371 69.0381 74.3043 69.0381 78.7092H70.5381ZM72.7111 68.1132C73.5178 66.4999 74.5707 65.0248 75.8735 63.6868L74.7988 62.6404C73.3917 64.0856 72.2474 65.6866 71.3695 67.4424L72.7111 68.1132ZM75.8737 63.6866C77.1339 62.3914 78.6459 61.2641 80.4167 60.3079L79.7039 58.988C77.8126 60.0094 76.1751 61.2258 74.7986 62.6406L75.8737 63.6866ZM80.4118 60.3105C82.138 59.3946 84.1235 58.6832 86.3753 58.1828L86.0499 56.7185C83.6875 57.2435 81.5715 57.997 79.7088 58.9854L80.4118 60.3105ZM86.389 58.1796C88.5913 57.6468 91.0759 57.3767 93.8481 57.3767V55.8767C90.9807 55.8767 88.375 56.1559 86.0363 56.7217L86.389 58.1796Z" fill="#FFF5E0" mask="url(#path-7-outside-4_2161_1628)"/>
<path d="M299.319 83.2581C299.319 97.583 287.772 109.141 273.597 109.141C259.421 109.141 247.875 97.583 247.875 83.2581C247.875 68.9331 259.421 57.375 273.597 57.375C287.772 57.375 299.319 68.9331 299.319 83.2581Z" stroke="#FFF5E0" stroke-width="12.75"/>
<path d="M376.569 83.2581C376.569 97.583 365.022 109.141 350.847 109.141C336.671 109.141 325.125 97.583 325.125 83.2581C325.125 68.9331 336.671 57.375 350.847 57.375C365.022 57.375 376.569 68.9331 376.569 83.2581Z" stroke="#FFF5E0" stroke-width="12.75"/>
<g clip-path="url(#clip0_2161_1628)">
<path d="M328.875 88.125C328.875 96.6422 321.672 103.875 312.375 103.875C303.078 103.875 295.875 96.6422 295.875 88.125C295.875 79.6078 303.078 72.375 312.375 72.375C321.672 72.375 328.875 79.6078 328.875 88.125Z" stroke="#FFF5E0" stroke-width="11.25"/>
</g>
<defs>
<clipPath id="clip0_2161_1628">
<rect width="27.75" height="32.25" fill="white" transform="translate(298.5 51)"/>
</clipPath>
</defs>
</svg>
