<svg width="500" height="500" viewBox="0 0 500 500" fill="none" xmlns="http://www.w3.org/2000/svg">
<g clip-path="url(#clip0_2273_726)">
<rect width="500" height="500" rx="80" fill="#C70039"/>
<path d="M585.58 210.597C472.3 314.729 488.621 354.142 381.28 338.256C273.938 322.37 155.61 521.055 171.496 413.713C187.382 306.372 287.278 232.232 394.619 248.118C501.961 264.004 656.509 139.776 585.58 210.597Z" fill="#FFF5E0"/>
<mask id="path-3-outside-1_2273_726" maskUnits="userSpaceOnUse" x="59" y="68" width="120" height="378" fill="black">
<rect fill="white" x="59" y="68" width="120" height="378"/>
<path d="M177.752 445H149.432C140.317 445 130.551 443.454 120.135 440.361C109.881 437.269 100.278 432.223 91.3262 425.225C82.3743 418.063 74.9688 408.867 69.1094 397.637C63.25 386.243 60.3203 372.327 60.3203 355.889V69.5117H123.797V355.889C123.797 363.701 126.238 369.967 131.121 374.688C136.004 379.245 142.107 381.523 149.432 381.523H177.752V445Z"/>
</mask>
<path d="M177.752 445H149.432C140.317 445 130.551 443.454 120.135 440.361C109.881 437.269 100.278 432.223 91.3262 425.225C82.3743 418.063 74.9688 408.867 69.1094 397.637C63.25 386.243 60.3203 372.327 60.3203 355.889V69.5117H123.797V355.889C123.797 363.701 126.238 369.967 131.121 374.688C136.004 379.245 142.107 381.523 149.432 381.523H177.752V445Z" fill="#FFF5E0"/>
<path d="M177.752 445V445.75H178.502V445H177.752ZM120.135 440.361L119.918 441.079L119.921 441.08L120.135 440.361ZM91.3262 425.225L90.8576 425.81L90.8642 425.815L91.3262 425.225ZM69.1094 397.637L68.4424 397.98L68.4444 397.984L69.1094 397.637ZM60.3203 69.5117V68.7617H59.5703V69.5117H60.3203ZM123.797 69.5117H124.547V68.7617H123.797V69.5117ZM131.121 374.688L130.6 375.227L130.609 375.236L131.121 374.688ZM177.752 381.523H178.502V380.773H177.752V381.523ZM177.752 444.25H149.432V445.75H177.752V444.25ZM149.432 444.25C140.402 444.25 130.708 442.718 120.348 439.642L119.921 441.08C130.394 444.19 140.232 445.75 149.432 445.75V444.25ZM120.351 439.643C110.192 436.579 100.671 431.579 91.7881 424.634L90.8642 425.815C99.8848 432.868 109.57 437.958 119.918 441.079L120.351 439.643ZM91.7947 424.639C82.9324 417.549 75.5906 408.438 69.7743 397.29L68.4444 397.984C74.3469 409.297 81.8163 418.577 90.8577 425.81L91.7947 424.639ZM69.7763 397.294C63.9848 386.032 61.0703 372.241 61.0703 355.889H59.5703C59.5703 372.414 62.5152 386.455 68.4424 397.98L69.7763 397.294ZM61.0703 355.889V69.5117H59.5703V355.889H61.0703ZM60.3203 70.2617H123.797V68.7617H60.3203V70.2617ZM123.047 69.5117V355.889H124.547V69.5117H123.047ZM123.047 355.889C123.047 363.871 125.548 370.344 130.6 375.227L131.642 374.148C126.928 369.591 124.547 363.531 124.547 355.889H123.047ZM130.609 375.236C135.645 379.936 141.937 382.273 149.432 382.273V380.773C142.277 380.773 136.363 378.554 131.633 374.139L130.609 375.236ZM149.432 382.273H177.752V380.773H149.432V382.273ZM177.002 381.523V445H178.502V381.523H177.002Z" fill="#FFF5E0" mask="url(#path-3-outside-1_2273_726)"/>
<path d="M390.844 147.044C409.714 207.908 371.172 273.279 329.016 286.22C254.949 308.956 218.452 272.018 218.452 212.905C218.452 122.239 225.793 144.083 304.927 125.539C333.432 118.859 367.597 72.0588 390.844 147.044Z" fill="#FFF5E0"/>
<path d="M322.167 198.444C318.915 215.624 306.818 221.72 289.438 221.72C272.058 221.72 263.004 213.748 263.004 198.444C263.004 183.141 286.534 176.277 303.914 176.277C325.943 176.277 324.894 184.036 322.167 198.444Z" fill="#FF6969"/>
<path d="M293.299 201.625C293.299 211.688 288.353 220.967 278.151 219.846C267.95 218.724 263.004 209.446 263.004 199.383C263.004 189.32 269.786 183.405 278.151 183.405C286.517 183.405 293.299 191.563 293.299 201.625Z" fill="#141E46"/>
<path d="M428.408 77.7524C419.498 103.592 382.966 150.817 343.315 137.006C265.607 109.939 186.456 267.146 200.61 171.501C228.372 116.958 278.715 89.785 302.773 93.3454C336.187 98.2905 511.72 0.677968 428.408 77.7524Z" fill="#FF6969"/>
<path d="M240.353 176.035C240.353 218.423 231.483 258.876 210.296 265.775C193.447 271.26 199.965 303.577 193.051 289.918C175.813 255.865 193.543 244.117 210.296 238.204C235.637 225.042 182.436 154.205 240.353 176.035Z" fill="#FF6969"/>
</g>
<defs>
<clipPath id="clip0_2273_726">
<rect width="500" height="500" rx="80" fill="white"/>
</clipPath>
</defs>
</svg>
