<svg width="150" height="150" viewBox="0 0 150 150" fill="none" xmlns="http://www.w3.org/2000/svg">
<path d="M88 22C111.569 22 123.356 22 130.675 29.7812C137.994 37.5625 138 50.0813 138 75.125C138 100.169 138 112.687 130.675 120.469C123.35 128.25 111.569 128.25 88 128.25H63C39.4313 128.25 27.6437 128.25 20.325 120.469C13.0062 112.687 13 100.169 13 75.125C13 50.0813 13 37.5625 20.325 29.7812C27.65 22 39.4313 22 63 22H88Z" stroke="#FFF5E0" stroke-width="8" stroke-linecap="round" stroke-linejoin="round"/>
<path d="M31.75 97C41.8062 83.6437 65.2125 82.9125 75.5 97M94.25 59.5H119.25M94.25 84.5H106.75M64.5562 64.1875C64.5562 67.0883 63.4039 69.8703 61.3527 71.9215C59.3016 73.9727 56.5196 75.125 53.6187 75.125C50.7179 75.125 47.9359 73.9727 45.8848 71.9215C43.8336 69.8703 42.6813 67.0883 42.6813 64.1875C42.6813 61.2867 43.8336 58.5047 45.8848 56.4535C47.9359 54.4023 50.7179 53.25 53.6187 53.25C56.5196 53.25 59.3016 54.4023 61.3527 56.4535C63.4039 58.5047 64.5562 61.2867 64.5562 64.1875Z" stroke="#FFF5E0" stroke-width="8" stroke-linecap="round" stroke-linejoin="round"/>
</svg>
